PathFileType	4	(X/Y/Z)	SUBJ32_0_static_RCNL2025.trc
DataRate	CameraRate	NumFrames	NumMarkers	Units	OrigDataRate	OrigDataStartFrame	OrigNumFrames
100	100	10	25	mm	100	100	114
Frame#	Time	R_Shoulder			L_Shoulder			C7			J_Notch			R_Elbow			L_Elbow			R_Wrist			L_Wrist			R_Asis			L_Asis			Sacral			Thoracic			Sternum			R_Thigh_Lateral			R_Knee_Lateral			R_Shank_Lateral			R_Ankle_Lateral			R_Heel			R_Toe			L_Thigh_Lateral			L_Knee_Lateral			L_Shank_Lateral			L_Ankle_Lateral			L_Heel			L_Toe		
		X1	Y1	Z1	X2	Y2	Z2	X3	Y3	Z3	X4	Y4	Z4	X5	Y5	Z5	X6	Y6	Z6	X7	Y7	Z7	X8	Y8	Z8	X9	Y9	Z9	X10	Y10	Z10	X11	Y11	Z11	X12	Y12	Z12	X13	Y13	Z13	X14	Y14	Z14	X15	Y15	Z15	X16	Y16	Z16	X17	Y17	Z17	X18	Y18	Z18	X19	Y19	Z19	X20	Y20	Z20	X21	Y21	Z21	X22	Y22	Z22	X23	Y23	Z23	X24	Y24	Z24	X25	Y25	Z25
100	0.99000000	-251.234756	1369.237061	-55.901131	-279.776062	1365.808716	-426.228577	-304.898407	1436.300293	-228.866135	-164.031448	1356.536255	-245.605286	-277.559082	1036.946533	52.473942	-310.342834	1049.356689	-529.023499	-207.430092	799.932831	72.116817	-236.379868	806.058136	-574.302032	-153.314682	915.632751	-124.751778	-160.141190	906.977417	-376.332428	-353.809418	952.469360	-241.482422	-372.446045	1202.238647	-233.609207	-74.606171	1134.622803	-248.444717	-268.518677	554.330139	-42.168373	-272.327423	455.912689	-84.658607	-301.941833	300.551483	-11.956531	-312.101135	68.445488	-114.427002	-358.094452	56.669167	-171.113678	-178.132797	50.092007	-132.576675	-264.545166	567.738892	-469.829895	-270.640625	472.963928	-424.616760	-309.023041	254.585831	-460.478271	-324.049622	61.906204	-379.642059	-364.707855	51.288494	-325.624023	-185.033752	40.690983	-379.935303
101	1.00000000	-251.331696	1369.263794	-55.821873	-279.830475	1365.839478	-426.097382	-304.965424	1436.302246	-228.834702	-163.984161	1356.564331	-245.525894	-277.551910	1036.981445	52.599014	-310.259155	1049.515137	-529.238464	-207.576210	799.939331	72.224566	-236.500870	805.834320	-574.757874	-153.167755	915.724915	-124.502472	-159.157516	906.967590	-377.490448	-353.911713	952.419861	-241.378479	-372.552551	1202.330444	-233.519684	-74.730751	1134.622192	-248.446045	-268.369965	553.882690	-42.287437	-272.367889	455.903687	-84.627655	-301.887573	300.485504	-11.891193	-312.120148	68.471466	-114.438316	-357.993134	56.574909	-171.107437	-178.221741	50.058506	-132.573502	-264.529114	567.693237	-469.685242	-270.642822	473.048401	-424.536316	-308.929565	254.559128	-460.605988	-324.031311	61.871510	-379.641174	-364.657471	51.238354	-325.553497	-184.997253	40.680130	-379.916718
102	1.01000000	-251.348160	1369.270020	-55.789944	-279.931824	1365.842163	-426.007263	-305.070892	1436.268555	-228.726318	-163.998276	1356.484985	-245.401932	-277.711487	1036.989014	52.730240	-310.209442	1049.619263	-529.394409	-207.450912	799.997223	72.351238	-236.578873	805.996765	-575.027069	-152.897751	915.831299	-124.373558	-159.812866	906.944885	-376.602295	-353.867279	952.424316	-241.296097	-372.510895	1202.237183	-233.420975	-74.826500	1134.620850	-248.353210	-268.222168	553.891846	-42.247612	-272.324768	455.848175	-84.561134	-301.830078	300.456329	-11.884309	-312.144470	68.391121	-114.414963	-358.045563	56.639050	-171.057526	-178.283524	50.060459	-132.611954	-264.622192	567.739136	-469.639801	-270.648285	473.046326	-424.510284	-308.966034	254.603409	-460.562225	-324.024811	61.895626	-379.653412	-364.661896	51.236744	-325.532928	-184.949829	40.678749	-379.872131
103	1.02000000	-251.466949	1369.258789	-55.704468	-279.925659	1365.886475	-425.964508	-305.114227	1436.233398	-228.572250	-164.052963	1356.477539	-245.316132	-277.628693	1036.945801	52.784225	-310.129608	1049.796387	-529.628601	-207.135361	800.107910	72.548216	-235.717354	806.682526	-575.661102	-152.812973	915.889404	-124.263176	-159.214157	906.930969	-377.444855	-353.918274	952.483948	-241.117706	-372.592041	1202.243164	-233.359177	-74.923431	1134.565063	-248.241119	-268.194275	553.865417	-42.172943	-272.317352	455.833191	-84.562538	-301.766785	300.427887	-11.842674	-312.168671	68.414314	-114.390739	-358.052979	56.690590	-171.049072	-178.190598	50.049492	-132.553116	-264.710358	567.769348	-469.592987	-270.729736	473.015594	-424.453583	-309.087067	254.539124	-460.555695	-324.052338	61.858200	-379.601898	-364.649658	51.271603	-325.549591	-184.972290	40.689568	-379.846924
104	1.03000000	-251.485031	1369.337524	-55.566841	-280.016663	1365.862793	-425.782593	-305.198212	1436.194336	-228.509949	-163.978973	1356.414429	-245.192474	-277.637543	1036.979980	52.922272	-310.046173	1049.957642	-529.836487	-206.817039	800.212128	72.715633	-235.633705	806.847504	-576.107849	-152.858490	915.800781	-124.236015	-158.947906	907.215210	-377.467926	-353.894775	952.414246	-240.979202	-372.554962	1202.243774	-233.254974	-74.826927	1134.551636	-248.193176	-268.241638	553.904175	-42.058945	-272.329071	455.810211	-84.417831	-301.804901	300.480347	-11.785488	-312.184692	68.447739	-114.378761	-358.087219	56.592358	-171.020355	-178.198898	50.039749	-132.588684	-264.721039	567.775024	-469.529694	-270.747040	473.057800	-424.401489	-308.985260	254.583923	-460.590393	-324.030457	61.899910	-379.619995	-364.648743	51.274014	-325.551727	-184.983887	40.656528	-379.827362
105	1.04000000	-251.540985	1369.286621	-55.517426	-279.950775	1365.916748	-425.673187	-305.306976	1436.157104	-228.418884	-164.006012	1356.414551	-245.131821	-277.660767	1037.018921	53.054859	-309.929382	1050.053345	-529.968018	-206.537872	800.274353	72.894007	-235.593636	807.047668	-576.550171	-152.890121	915.765137	-124.220512	-158.952469	907.218506	-377.436920	-353.916412	952.414001	-240.853607	-372.608917	1202.260132	-233.076050	-74.862862	1134.547974	-248.108551	-268.152588	553.827881	-42.009319	-272.343994	455.770966	-84.404205	-301.804871	300.427032	-11.646694	-312.188141	68.393150	-114.407814	-358.089630	56.604744	-170.974213	-178.167084	50.040085	-132.559082	-264.820587	567.815002	-469.419159	-270.801178	473.051758	-424.281891	-309.168274	254.548645	-460.439728	-324.105225	61.885918	-379.579590	-364.667358	51.320271	-325.521057	-185.029037	40.702808	-379.787598
106	1.05000000	-251.558945	1369.280151	-55.408058	-279.985046	1365.870117	-425.557953	-305.343933	1436.103027	-228.258270	-164.047058	1356.469727	-245.035614	-277.646332	1037.005493	53.173817	-309.916565	1050.253296	-530.137573	-206.442924	800.311340	73.043894	-235.527893	807.362244	-577.126953	-152.890640	915.778564	-124.218651	-160.132187	907.076721	-376.144318	-353.868225	952.420898	-240.750702	-372.556763	1202.255859	-232.983963	-74.915489	1134.477905	-248.012680	-268.073700	553.828491	-41.932419	-272.231018	455.828857	-84.367836	-301.831146	300.378815	-11.606009	-312.113281	68.424210	-114.334267	-358.107330	56.621555	-170.973267	-178.246521	49.978210	-132.561447	-264.895294	567.822754	-469.332336	-270.826202	473.107941	-424.233490	-309.062531	254.619308	-460.402557	-324.085236	61.867085	-379.513092	-364.694550	51.276924	-325.495331	-185.058090	40.662426	-379.773712
107	1.06000000	-251.623688	1369.230103	-55.300377	-280.054993	1365.900879	-425.395782	-305.306091	1436.116455	-228.131485	-164.098404	1356.472656	-244.953156	-277.617065	1037.013672	53.278538	-309.819489	1050.384277	-530.391968	-206.095085	800.374146	73.236618	-235.322769	807.545593	-577.731934	-152.880478	915.755859	-124.219917	-160.751221	906.917908	-375.618713	-353.792206	952.399719	-240.550339	-372.533600	1202.301147	-232.850800	-74.884674	1134.472412	-247.922134	-268.011963	553.839355	-41.870693	-272.239258	455.753845	-84.349297	-301.813202	300.344635	-11.497983	-312.187683	68.452133	-114.344231	-358.166718	56.628223	-170.941238	-178.243912	50.027843	-132.557877	-264.849548	567.848267	-469.253601	-270.806122	473.153503	-424.227539	-309.233521	254.621201	-460.368073	-324.075928	61.862789	-379.508667	-364.637482	51.179359	-325.455353	-185.014648	40.656010	-379.787628
108	1.07000000	-251.602493	1369.244873	-55.226181	-280.040100	1365.926636	-425.267944	-305.338379	1436.088623	-227.986725	-164.290283	1356.644653	-244.594315	-277.525604	1036.962769	53.341152	-309.717529	1050.570557	-530.539307	-206.000084	800.415527	73.319485	-235.236877	807.847839	-578.241211	-152.899918	915.634338	-124.206345	-160.662415	906.817261	-375.729706	-353.793274	952.386536	-240.516037	-372.477539	1202.324585	-232.749374	-74.873604	1134.456909	-247.894348	-268.042755	553.883850	-41.802750	-272.338898	455.805084	-84.252357	-301.827240	300.291321	-11.538918	-312.208954	68.433777	-114.351227	-358.172180	56.629539	-170.937653	-178.255417	50.059200	-132.561356	-264.938812	567.923462	-469.157684	-270.824615	473.070709	-424.147339	-309.151367	254.677017	-460.240845	-324.092255	61.865719	-379.500916	-364.644043	51.264606	-325.546570	-184.979446	40.649117	-379.827576
109	1.08000000	-251.649811	1369.252930	-55.081364	-280.064240	1365.975952	-425.146759	-305.367401	1436.038940	-227.860641	-164.361450	1356.650391	-244.482498	-277.501709	1036.933838	53.457012	-309.654205	1050.723633	-530.705994	-206.085861	800.353180	73.363512	-234.806755	808.193207	-578.960388	-152.964798	915.666321	-124.091125	-160.526627	906.825256	-375.648407	-353.760010	952.381287	-240.314545	-372.504761	1202.329468	-232.603561	-74.949348	1134.456543	-247.779099	-267.999084	553.884827	-41.697342	-272.291870	455.745850	-84.192680	-301.869537	300.345795	-11.459218	-312.190643	68.454277	-114.261826	-358.169556	56.628700	-170.939163	-178.206970	50.114708	-132.584564	-264.966400	567.912292	-469.085754	-270.905945	473.083069	-424.078827	-309.073853	254.728271	-460.320374	-324.098785	61.876259	-379.494995	-364.661346	51.179543	-325.494202	-185.021820	40.667873	-379.845917
